<svg xmlns="http://www.w3.org/2000/svg" width="360" height="240" fill="none"><g fill-rule="evenodd" clip-path="url(#a)" clip-rule="evenodd" transform="matrix(1.2 0 0 1.2 0 -.763)"><path fill="#039" d="M0 .635h300v200H0Z"/><path fill="#fc0" d="m143.33 43.859-.007.007 2.551-7.7-6.67-4.75-.009-.005h8.254l2.548-7.69.002-.009 2.551 7.699h8.244l.01-.002-6.679 4.758 2.548 7.69.005.008L150 39.108Zm2.544 125.998-6.67-4.752-.009-.004h8.254l2.548-7.689.002-.01 2.551 7.699h8.254l-.009.004-6.67 4.752 2.551 7.699-.007-.007-6.669-4.751-6.679 4.757.005-.009zM81.856 90.561l2.551 7.698h8.254l-.008.005-6.67 4.751 2.55 7.699-.006-.007-6.67-4.751-6.678 4.757.004-.008 2.548-7.69-6.678-4.757.01.001h8.243l2.548-7.689zm27.392-37.744 2.552-7.698-6.678-4.757.01.001h8.245l2.551-7.699.002.01 2.547 7.688h8.255l-.009.004-6.671 4.752 2.551 7.698-.007-.007-6.67-4.75-6.671 4.751zm-18.265 4.325.002-.01 2.551 7.699h8.245l.01-.002-6.678 4.757 2.548 7.69.005.008-6.68-4.758-6.669 4.751-.007.007 2.551-7.698-6.671-4.752-.01-.005h8.256zM80.19 131.684l-.01-.005h8.258l2.547-7.688.002-.01 2.55 7.697h8.246l.01-.001-6.68 4.758 2.548 7.687.005.009-6.679-4.758-6.671 4.752-.007.007 2.55-7.697zm46.543 24.459-6.679 4.758 2.551 7.697-.007-.007-6.671-4.751-6.679 4.758.004-.009 2.548-7.687-6.678-4.758.01.002h8.246l2.551-7.698.001.01 2.548 7.687h8.245zm91.41-65.582.001.01 2.548 7.688h8.244l.01-.001-6.679 4.757 2.548 7.69.005.008-6.678-4.757-6.67 4.751-.007.007 2.551-7.699-6.67-4.751-.009-.005h8.254zm-27.392-37.744-.007-.007-6.67-4.752-6.67 4.751-.007.007 2.551-7.698-6.671-4.752-.009-.004h8.255l2.547-7.688.002-.01 2.551 7.7h8.245l.01-.002-6.678 4.757zm11.584 24.467.004-.009 2.548-7.689-6.669-4.75-.009-.005h8.255l2.548-7.69.002-.01 2.551 7.698h8.244l.01-.001-6.68 4.758 2.548 7.688.005.01-6.678-4.758zm6.681 46.707 2.548 7.688h8.257l-.009.005-6.67 4.751 2.551 7.697-.007-.007-6.671-4.752-6.679 4.758.005-.009 2.547-7.687-6.679-4.758.01.001h8.245l2.551-7.697zm-34.975 32.533-.777-.381h.242l-.241-.172 1.056.172h7.199l2.499-7.54.05-.328 2.551 7.698h8.257l-.517.254.516-.084-6.632 4.724 2.505 7.56-.187-.187.188.356-6.799-4.843-5.949 4.237-.609.607.075-.226-.076.054.155-.294 2.443-7.37z"/></g><defs><clipPath id="a"><path fill="#fff" d="M0 .635h300v200H0z"/></clipPath></defs></svg>